<svg xmlns="http://www.w3.org/2000/svg" viewBox="0 0 0.86 1"><defs><style>.cls-1{fill:none;}</style></defs>
<polygon class="cls-1" points="0.51 0.72 0.42 0.78 0.42 0.79 0.4 0.78 0.38 0.79 0.39 0.8 0.4 0.8 0.42 0.8 0.42 0.79 0.51 0.73 0.51 0.72"/>
<path class="cls-1" d="M458.41,409.65v.09h0s0,.09,0,.11h.05a0,0,0,0,1,0,0h0a0,0,0,0,0,0,0h0l0,.05h0a.25.25,0,0,0,.15-.22s0,0,.05-.07,0,0-.05-.08,0,0,0,0A.16.16,0,0,0,458.41,409.65Z" transform="translate(-457.97 -409.17)"/>
<path class="cls-1" d="M458.8,409.33s-.05,0-.05.05h.08l0,0h0v.43h-.1l-.07,0s0-.08,0-.1,0,0,.05-.07a.3.3,0,0,0-.05-.08,0,0,0,0,0,0,0,.09.09,0,0,1,0,.1v0h0s0,0,0,0,0,0,0,0h0a.18.18,0,0,1,0-.06h0s0,0,0,0,0,0,0,0h0l0,0v0l0,0a0,0,0,0,1,0,0s0,0,0,0a0,0,0,0,1,0,0l0,0a.08.08,0,0,0,0-.05v0s0,0,0,0h0v0h0v.05l-.05,0v0h0l0,0a.06.06,0,0,1-.06,0h0a0,0,0,0,0-.05,0,0,0,0,0,1,0,0h-.11l0,0,0-.05,0,0s0,.05,0,.05v-.06l.09-.17h0l.14-.19h.28s.05,0,.06,0,0-.05,0-.06v0s.07,0,.08.08Z" transform="translate(-457.97 -409.17)"/>
<path class="cls-1" d="M458.36,410s0,0,0,0v0s0-.05-.07-.05a.07.07,0,0,1,0-.1s0,0,0,0,0,0,0,0,0,0,0,0,0,0,0,0h0s0,0,0,0a0,0,0,0,1,0,0,0,0,0,0,0,0,0h0l0,0s0,0,.05,0a0,0,0,0,0,0,0s0,0,.06,0l0,0s0,0,.08,0,0,0,0,0,0,0,0,0,0,0,0,0a0,0,0,0,1,0,0v0a0,0,0,0,0,0,0,0,0,0,0,0,.06,0s0,0,0,0a0,0,0,0,0,0,0h0s0,0,0,0,0,0,0,0a.05.05,0,0,0,.06,0v-.1H458s0,0,0,.05,0,0,0,0a0,0,0,0,0,0,0h0a0,0,0,0,1,0,0,0,0,0,0,0,0,0s0,.05,0,.05,0,0,0,0,0,0,0,0h0l0,0s-.08-.05-.05.06a0,0,0,0,0-.06,0s0,0,0,0-.05,0-.05,0,0,0,0,.05l0,0s-.06,0-.06,0,0,0,0,0,0,0,0,0,0,.05,0,.06a.06.06,0,0,0,.06,0s.05,0,.06,0a.08.08,0,0,0,0-.05s0,0,0,0,0,0,0,0-.08,0,0,.09a.14.14,0,0,0,.09,0,.1.1,0,0,1,0,.06v0h0Z" transform="translate(-457.97 -409.17)"/>
<path class="cls-1" d="M458.83,409.83s-.05-.05-.22,0c0,0-.12,0-.13,0s.08.06.06.07h0a.08.08,0,0,1,0,0,0,0,0,0,1,0,.06l0,0v.07h.36Z" transform="translate(-457.97 -409.17)"/></svg>