<svg xmlns="http://www.w3.org/2000/svg" viewBox="0 0 43.87 215.51"><defs><style>.cls-1{fill:none;stroke:#c6c6c6;stroke-miterlimit:10;stroke-width:3px;}.cls-2{fill:#c6c6c6;}.cls-3{fill:#e30613;}</style></defs><g id="Layer_2" data-name="Layer 2"><g id="Layer_11" data-name="Layer 11"><line class="cls-1" x1="21.93" y1="49.77" x2="21.93" y2="215.51"/><circle class="cls-2" cx="21.97" cy="46.98" r="4.87"/><path class="cls-3" d="M18,28.8s-.1-.06-.11-.11c-.15-.56-.6-.52-1-.53-1.21,0-2.41-.07-3.62-.09-2,0-4.06,0-6.08-.1-1.22,0-2.43-.13-3.71-.2l.11,1.44-1-.43c-.46-.2-.93-.4-1.39-.62S.59,27.55,0,27.73c.05-.75.08-1.42.14-2.08.11-1.29.15-2.59.38-3.85A52.71,52.71,0,0,0,.8,16.05l0-.36.13,0a3.62,3.62,0,0,1,.49.78c.18.58.29,1.18.42,1.77.22.93.42,1.87.66,2.79a1.59,1.59,0,0,0,1.53,1.29c.4,0,.79.05,1.19.06,3,0,5.94.05,8.91.09.85,0,1.7.11,2.55.09a12.79,12.79,0,0,0,2-.26,1.08,1.08,0,0,0,.87-1c.21-1.67.41-3.35.62-5,.1-.85.18-1.69.3-2.53.16-1.14.39-2.27.51-3.41A32.4,32.4,0,0,0,21.22,7c0-2,0-4,0-6a2.75,2.75,0,0,1,.18-.84c0-.09.22-.16.34-.16A.33.33,0,0,1,22,.22a9.09,9.09,0,0,1,.22,1.37c.05,1.85,0,3.7.11,5.55.09,1.56.32,3.11.5,4.67.1.81.2,1.61.32,2.41s.29,1.72.42,2.59c.15,1.09.27,2.18.43,3.28a6.45,6.45,0,0,0,.3,1.37,1.6,1.6,0,0,0,1.68.93c1.51,0,3-.08,4.54-.14L37,22c.76,0,1.52-.1,2.29-.08a1.91,1.91,0,0,0,2.1-1.75c.16-.83.34-1.65.52-2.47s.29-1.39.48-2.07A2.58,2.58,0,0,1,42.8,15l.13,0c0,.3.08.61.09.92.06,1.38.1,2.75.18,4.13a11.41,11.41,0,0,0,.23,1.3c0,.22,0,.43.06.65.07.6.15,1.2.21,1.79,0,.24,0,.48,0,.71,0,.71.1,1.43.14,2.14,0,.2,0,.4,0,.63-.67,0-1.08.46-1.6.69s-1.23.43-1.92.67l.12-1.21-1.81.09-4.35.17c-1.17,0-2.34.09-3.51.16-1.43.08-2.85.2-4.28.28-.28,0-.45.07-.52.35a.34.34,0,0,1-.1.15l.75,1.65a3.57,3.57,0,0,1,.15,2.51c-.24.83-.66,1.6-1,2.41a7.28,7.28,0,0,0-.7,2.55,4,4,0,0,0,.14.65A4.65,4.65,0,0,1,24.93,41a2.84,2.84,0,0,0-.1.57,13.73,13.73,0,0,0,1.2.79,4.94,4.94,0,0,0,.88.23.63.63,0,0,1,.35.24c.21.35.38.72.57,1.08a.2.2,0,0,0,.09.07c.5.06.55.45.57.84s0,.66,0,1a.46.46,0,0,1-.52.52h-.15a3.4,3.4,0,0,0-2.44,1.11,6.16,6.16,0,0,1-1.91,1.06,4.3,4.3,0,0,1-3.39-.12,6.32,6.32,0,0,1-1.87-1.21,2.46,2.46,0,0,0-1.95-.81c-.59,0-.76-.17-.76-.78,0-.35,0-.71.06-1.07A.47.47,0,0,1,16,44a.3.3,0,0,0,.21-.13c.16-.33.28-.68.45-1a.62.62,0,0,1,.38-.28A2.1,2.1,0,0,0,18.41,42a.79.79,0,0,1,.34-.23c.4-.11.4-.38.31-.7a5.68,5.68,0,0,1-.43-2.44,6.7,6.7,0,0,1,.24-.76.81.81,0,0,0,.05-.4c-.16-.54-.33-1.08-.54-1.6s-.61-1.28-.88-1.93a4.61,4.61,0,0,1-.46-2.6A5.67,5.67,0,0,1,18,28.8Z"/></g></g></svg>