<svg xmlns="http://www.w3.org/2000/svg" viewBox="0 0 487.14 564.48"><defs><style>.cls-1{fill:none;stroke:#1d1d1b;stroke-miterlimit:10;}</style></defs>
<g id="Layer_2" data-name="Layer 2">
   <g id="face"><path class="cls-1" d="M250.08,268.78l-1.8,38.52,9,15.12-4.5,6.48s1.62,46.8-7,58c0,0-6.48,4.32,24.48,4.32,0,0,1.44,9-2.52,15.82l9.72,6.14a17.78,17.78,0,0,1,13-4s-11.52,1.44-6.84,13l6.84,3.6-1.8,6.12,20.88,26.64,8.64-4.68s88.56-42.48,84.24-123.48c0,0,22,2.88,29.16-41.4,0,0-2.16-16.2-27.36-45,0,0-21.24,1.44-19.8,24.12C384.36,268.06,318.84,198.94,250.08,268.78Z"/></g>
</g>
</svg>