<svg xmlns="http://www.w3.org/2000/svg" viewBox="0 0 487.14 564.48"><defs><style>.cls-1{fill:none;stroke:#1d1d1b;stroke-miterlimit:10;}</style></defs>
<g id="Layer_2" data-name="Layer 2">
   <g id="hair"><path class="cls-1" d="M467.52,93.1s-23.76,15.12-27.36,25.2c0,0,37.44-5.76,46.08,0a95.74,95.74,0,0,0-13,10.8l13,3.6v239l-54.72,3.6s-34.56,10.86-38.88,9.6c0,0,15.66-44.16,9.72-54.6,0,0,21,4.2,29.16-41.4,0,0-5.28-20.4-27.36-45,0,0-22.8,1.32-19.8,24.12,0,0,20.28,25.68-4.68,55.44,0,0-1,5.28,0,7.68,0,0-2.34-.06-3.18-.84s0,4.26,0,4.26a3,3,0,0,1-3.42-1.62,20.07,20.07,0,0,0,.48,5.58s-9.72-1.86-10.68-24.6c0,0-7.32,5.22-6.6,21.9,0,0-3.36-2.88-5.4-10.44,0,0-3.48,7.2-2.76,9.36,0,0-2.64-23.52,3.72-32.64a8.46,8.46,0,0,0-5.16-6.12s-10.92,1.2-10.2-24.36c0,0-8.52-17.64-20.64-12,0,0,4.32,6.36,5.64,6.36,0,0-11.76-6.36-13.92-10.56,0,0-3.36,5.28-2.16,9.48,0,0-12.48-6.12-12.72-7.8,0,0,.84,11-3.72,14.76,0,0-6.24-16.32-8.76-14.64,0,0-.12,14.4-9.36,18.36,0,0-12,14.28-11.52,16.56,0,0,3.47-13.32-8.76-23.88l-1.51,22.54s1.63,7.46,7.39,10.58c0,0-5.74,2-7.79-2l-.37,7.92,9,15.12-4.5,6.48-.34,26.16S226,367.54,221.28,371.62c0,0,4.56-5.88,4.92-9.12,0,0-8.64,5.76-16.8,3.72,0,0,12.48-10.92,13-14.76,0,0-18.48,10.08-35.16.48,0,0-9.36-.84-9.84-.12s11.16-6.48,11.64-7.8c0,0-15-12.75-29.88,4,0,0,.06-8.14,4.38-12.82,0,0,6.12-2,8.46-7.2l-52.44,7s-12.48-3.84-14.4-1.2,7.44-13.92,8.88-13.68l15.12-25.92-21.6,13.44s-8.4,26.64-13.44,27.84V300.94l49.44-96.48L154.8,198l-20.88-.48L209.76,93.1,371,85s23.28,5.1,29.16,20.94c0,0-.24-23.76-17.52-29L386.16,65s40.56,22.08,42,41.52C428.16,106.54,457,90.46,467.52,93.1Z"/></g>
</g>
</svg>