<svg overflow="visible" xmlns="http://www.w3.org/2000/svg" viewBox="0 0 487.14 564.48"><defs><style>.cls-1{fill:none;stroke:#1d1d1b;stroke-miterlimit:10;}</style></defs>
<g id="Layer_2" data-name="Layer 2">
   <g id="smoke"><path class="cls-1" d="M221.28,454.54s7.2-8.64-8.64-18.72c0,0-2.34-6.12-4.14-20,0,0-18-25.74-35.82-28.44,0,0-34.38-22-13-51.3,0,0,19.08-5.4,13.14-25.38,0,0,8.1-14.58.36-22.32,0,0,2.52-5.76-7.74-10.26,0,0,1.08-9.54-11.16-6.84,0,0-2.16-2.7-5.22-2.52,0,0,5.76-18.54-12.78-25.92,0,0-1.44-9,12.42-17.83,0,0,7.2-9.17.36-19.25,0,0-7.74-4.14-7.92-9.36,0,0,21.42-13.14,26.46-23.94,0,0,13.32,20,28.44,14.58,0,0,4.14,11.7,19.44,8.28,0,0,14.58,16.38,33.66-4.68,0,0,14-2.16,16.92-16.38,0,0,7.74,18.72,43.56-1.8,0,0,7,20.52,27-8.46,0,0,15.12-.36,6.48-23.76,0,0,4.32-17.28-11-18.18,0,0-1.62-4.32,0-8.1,0,0,5-4.14.36-13.14,0,0,13.14-1.26,18.18-11.88,0,0,31.68,6.3,36-20.52A7.58,7.58,0,0,0,391.92,60s11.34,2.34,17.1-5.76a3,3,0,0,1,4,2.16s-6.48,20.7,17.28,21.78c0,0,8.28,12.78,24.48-2.52,0,0,19.08,4.68,31.5-18.9V.5H23S8.88,23,37.92,30.7c0,0-3.84,13.92,7.68,18.24,0,0,10.56,9.84,20.16-1.2,0,0,8.16,0,10.32-4.8,0,0,11.76-2.88,18,7.92,0,0,2.88,10.8,13.68,10.56,0,0,3.6,29.76,18.48,29.28,0,0,15.84,12,22.56-4.32,0,0,10.56,12,5.28,19.68,0,0,5.28,8.64,4.32,10.08,0,0-11,1-10.56,6.72,0,0-42.72-24-29.76,37.44,0,0-20.64-16.8-31.68,8.16,0,0-6.24-2.4-7.2,2.88,0,0-24.48-3.36-28.8,18.24,0,0-16.8,12,.48,25.92,0,0,.48,4.66-7.2,9.53,0,0-36-18.65-37,22.63,0,0-17.28,5.28,5.76,24.48a12,12,0,0,0,2.88,13.92s-13.92,30.24,7.2,35c0,0,11.52,18.24,36,12,0,0,29.76,25,32.64-2.4,0,0,11-7.68,13-26.88,0,0,1,6.24,9.84,16.32,0,0,4.08,17.28,19.92,21.6,0,0-47,17.76,10.08,47,0,0,24.9,15.72,47.22,14.64,0,0,18.9,13.32,18.36,30.6,0,0-1.44,13.86-.54,16,0,0,4.86,3.78,8.28,2.34C217.32,452.38,218.58,455.26,221.28,454.54Z"/></g>
</g>
</svg>